<svg width="1039" height="693" viewBox="0 0 1039 693" fill="none" xmlns="http://www.w3.org/2000/svg">
<rect width="1039" height="693" fill="white"/>
<rect x="48.5" y="48.5" width="199" height="341" fill="white"/>
<rect x="48.5" y="48.5" width="199" height="341" stroke="#8D8D8D"/>
<rect x="49" y="49" width="198" height="340" fill="white"/>
<g clip-path="url(#clip0_1935_12405)">
<text fill="black" xml:space="preserve" style="white-space: pre" font-family="Arial" font-size="14" font-weight="bold" letter-spacing="0.16px"><tspan x="64" y="76.8535">Massive External data</tspan></text>
</g>
<rect x="400.5" y="377.5" width="239" height="87" fill="white"/>
<rect x="400.5" y="377.5" width="239" height="87" stroke="#8D8D8D"/>
<rect x="401" y="378" width="238" height="86" fill="white"/>
<g clip-path="url(#clip1_1935_12405)">
<text fill="black" xml:space="preserve" style="white-space: pre" font-family="Arial" font-size="14" font-weight="bold" letter-spacing="0.16px"><tspan x="416" y="405.854">+ Enterprise proprietary data</tspan></text>
</g>
<g clip-path="url(#clip2_1935_12405)">
<rect width="32" height="32" transform="translate(76.3201 189.957)" fill="white" fill-opacity="0.01" style="mix-blend-mode:multiply"/>
<path d="M104.32 221.317H80.3201C80.1211 221.317 79.9601 221.156 79.9601 220.957V190.957C79.9601 190.758 80.1211 190.597 80.3201 190.597H98.3201C98.4161 190.597 98.5081 190.635 98.5751 190.702L104.575 196.702C104.642 196.77 104.68 196.861 104.68 196.957V220.957C104.68 221.156 104.519 221.317 104.32 221.317ZM80.6801 220.597H103.96V197.317H98.3201C98.1211 197.317 97.9601 197.156 97.9601 196.957V191.317H80.6801V220.597ZM98.6801 196.597H103.451L98.6801 191.826V196.597ZM100.32 217.317H84.3201V216.597H100.32V217.317ZM100.32 213.317H84.3201V212.597H100.32V213.317ZM100.32 209.317H84.3201V208.597H100.32V209.317ZM100.32 205.317H84.3201V204.597H100.32V205.317ZM100.32 201.317H84.3201V200.597H100.32V201.317Z" fill="#161616"/>
</g>
<path d="M79.981 267.713H83.0562M79.981 270.875H91.4213M79.981 280.968H95.0282M79.981 274.207H91.4213M79.981 277.31H87.9308M80.827 287.924L81.9328 289.03L84.8234 286.139M100.259 288.394L95.7065 284.526M100.259 288.394L97.8252 289.314M100.259 288.394L104.29 284.363L108.32 280.333L103.768 276.465L95.7065 284.526M95.7065 284.526L95.1106 287.016M95.1106 287.016L94.2362 290.67L97.8252 289.314M95.1106 287.016L97.8252 289.314M100.969 279.263V261.957H76.3201V292.36H100.969V287.684M79.981 284.526V290.081H85.6938V284.526H79.981Z" stroke="black" stroke-linecap="round" stroke-linejoin="round"/>
<g clip-path="url(#clip3_1935_12405)">
<rect width="32" height="32" transform="translate(132.32 189.957)" fill="white" fill-opacity="0.01" style="mix-blend-mode:multiply"/>
<path d="M148.32 221.317C139.85 221.317 132.96 214.427 132.96 205.957C132.96 200.928 135.407 196.243 139.522 193.364C139.482 193.236 139.46 193.099 139.46 192.957C139.46 192.207 140.07 191.597 140.82 191.597C141.215 191.597 141.571 191.766 141.82 192.036C143.859 191.081 146.044 190.597 148.32 190.597C153.349 190.597 158.034 193.044 160.913 197.159C161.042 197.119 161.178 197.097 161.32 197.097C162.07 197.097 162.68 197.707 162.68 198.457C162.68 198.852 162.51 199.208 162.241 199.457C163.196 201.497 163.68 203.682 163.68 205.957C163.68 210.986 161.232 215.671 157.118 218.55C157.158 218.679 157.18 218.816 157.18 218.957C157.18 219.707 156.57 220.317 155.82 220.317C155.424 220.317 155.068 220.147 154.82 219.878C152.78 220.833 150.595 221.317 148.32 221.317ZM142.093 219.206C143.984 220.098 146.094 220.597 148.32 220.597C150.186 220.597 151.988 220.256 153.693 219.58C152.206 219.31 150.452 218.286 148.612 216.597C148.109 216.892 147.379 216.798 146.968 216.391L142.093 219.206ZM155.82 218.317C155.467 218.317 155.18 218.604 155.18 218.957C155.18 219.31 155.467 219.597 155.82 219.597C156.173 219.597 156.46 219.31 156.46 218.957C156.46 218.604 156.173 218.317 155.82 218.317ZM149.115 216.08C151.117 217.915 153.027 218.932 154.456 218.932C154.457 218.932 154.459 218.932 154.461 218.932C154.474 218.194 155.079 217.597 155.82 217.597C156.06 217.597 156.287 217.66 156.483 217.77C157.312 216.363 157.269 213.856 156.489 210.895L149.24 215.081C149.269 215.19 149.284 215.306 149.284 215.425C149.284 215.662 149.223 215.886 149.115 216.08ZM135.828 213.585C137.169 215.773 139.069 217.584 141.327 218.816L146.608 215.767C146.579 215.657 146.564 215.541 146.564 215.423C146.564 215.159 146.639 214.913 146.77 214.704C145.428 213.18 144.13 211.373 142.993 209.447L135.828 213.585ZM157.135 210.52C157.892 213.319 158.019 215.763 157.431 217.416C160.593 214.902 162.571 211.206 162.909 207.187L157.135 210.52ZM147.924 214.784C147.571 214.784 147.284 215.071 147.284 215.424C147.284 215.777 147.571 216.064 147.924 216.064C148.277 216.064 148.564 215.777 148.564 215.424C148.564 215.071 148.277 214.784 147.924 214.784ZM147.924 214.063C148.296 214.063 148.633 214.213 148.879 214.456L156.289 210.179C155.661 208.059 154.678 205.743 153.383 203.45L143.617 209.088C144.727 210.968 145.992 212.731 147.299 214.216C147.486 214.119 147.699 214.063 147.924 214.063ZM133.685 205.584C133.681 205.708 133.68 205.832 133.68 205.957C133.68 208.493 134.328 210.88 135.468 212.962L142.634 208.824C141.533 206.874 140.618 204.848 139.969 202.926C139.592 202.936 139.225 202.786 138.969 202.534L133.685 205.584ZM154.007 203.089C155.304 205.384 156.29 207.683 156.932 209.807L162.956 206.328C162.959 206.204 162.96 206.08 162.96 205.956C162.96 203.797 162.503 201.724 161.601 199.787C161.16 199.881 160.67 199.727 160.362 199.419L154.007 203.089ZM140.657 202.712C141.29 204.585 142.183 206.561 143.257 208.465L153.023 202.826C151.684 200.559 150.169 198.549 148.648 196.946L141.24 201.223C141.269 201.333 141.284 201.449 141.284 201.567C141.284 202.047 141.034 202.47 140.657 202.712ZM139.206 194.499C136.046 197.013 134.069 200.707 133.732 204.726L138.608 201.911C138.579 201.801 138.564 201.686 138.564 201.567C138.564 201.061 138.841 200.619 139.252 200.385C138.709 197.951 138.698 195.921 139.206 194.499ZM149.291 196.575C150.81 198.192 152.308 200.196 153.646 202.466L160.002 198.796C159.975 198.687 159.96 198.574 159.96 198.457C159.96 198.109 160.092 197.791 160.308 197.55C158.989 195.672 157.275 194.16 155.319 193.095L149.291 196.575ZM139.924 200.927C139.571 200.927 139.284 201.214 139.284 201.567C139.284 201.92 139.571 202.207 139.924 202.207C140.277 202.207 140.564 201.92 140.564 201.567C140.564 201.214 140.277 200.927 139.924 200.927ZM139.95 200.207C140.311 200.214 140.639 200.363 140.879 200.6L148.129 196.415C145.958 194.262 143.781 192.967 142.18 192.981C142.167 193.72 141.562 194.317 140.82 194.317C140.58 194.317 140.354 194.255 140.158 194.145C139.437 195.381 139.361 197.549 139.95 200.207ZM161.32 197.817C160.967 197.817 160.68 198.104 160.68 198.457C160.68 198.81 160.967 199.097 161.32 199.097C161.673 199.097 161.96 198.81 161.96 198.457C161.96 198.104 161.673 197.817 161.32 197.817ZM142.944 192.335C144.672 192.651 146.727 193.984 148.775 196.041L154.55 192.707C150.993 191.033 146.648 190.868 142.944 192.335ZM140.82 192.317C140.467 192.317 140.18 192.604 140.18 192.957C140.18 193.31 140.467 193.597 140.82 193.597C141.173 193.597 141.46 193.31 141.46 192.957C141.46 192.604 141.173 192.317 140.82 192.317Z" fill="#161616"/>
</g>
<g clip-path="url(#clip4_1935_12405)">
<rect width="32" height="32" transform="translate(132.32 117.957)" fill="white" fill-opacity="0.01" style="mix-blend-mode:multiply"/>
<path d="M159.306 127.957L160.08 127.956L157.643 121.823H156.974L154.536 127.957H155.311L155.964 126.316H158.655L159.306 127.957ZM156.249 125.596L157.309 122.93L158.368 125.596H156.249ZM145.32 149.317H133.32C133.121 149.317 132.96 149.156 132.96 148.957V136.957C132.96 136.758 133.121 136.597 133.32 136.597H145.32C145.519 136.597 145.68 136.758 145.68 136.957V148.957C145.68 149.156 145.519 149.317 145.32 149.317ZM133.68 148.597H144.96V137.317H133.68V148.597ZM157.32 131.317C153.813 131.317 150.96 128.464 150.96 124.957C150.96 121.45 153.813 118.597 157.32 118.597C160.827 118.597 163.68 121.45 163.68 124.957C163.68 128.464 160.827 131.317 157.32 131.317ZM157.32 119.317C154.21 119.317 151.68 121.847 151.68 124.957C151.68 128.067 154.209 130.597 157.32 130.597C160.431 130.597 162.96 128.067 162.96 124.957C162.96 121.847 160.43 119.317 157.32 119.317ZM146.244 121.876L145.735 122.385L147.947 124.597H141.32C140.019 124.597 138.96 125.656 138.96 126.958V134.957H139.68V126.958C139.68 126.053 140.416 125.317 141.32 125.317H147.951L145.735 127.533L146.244 128.042L149.327 124.959L146.244 121.876ZM156.96 132.958V140.958C156.96 141.861 156.225 142.596 155.32 142.596H148.69L150.902 140.384L150.392 139.874L147.309 142.958L150.392 146.041L150.902 145.531L148.686 143.316H155.32C156.622 143.316 157.68 142.257 157.68 140.958V132.958H156.96ZM142.32 141.317V140.597H139.68V139.457H138.96V140.597H136.32V141.318H140.313C140.3 141.949 140.157 143.354 139.29 144.382C138.64 143.763 138.224 143.014 138.088 142.383L137.384 142.535C137.536 143.237 137.996 144.134 138.757 144.88C138.123 145.35 137.312 145.599 136.319 145.599V146.32C137.544 146.32 138.54 145.98 139.316 145.346C140.089 145.914 141.079 146.32 142.319 146.32V145.599C141.334 145.599 140.511 145.285 139.85 144.832C140.863 143.62 141.023 142.034 141.034 141.318L142.32 141.317Z" fill="#161616"/>
</g>
<g clip-path="url(#clip5_1935_12405)">
<rect width="32" height="32" transform="translate(132.32 261.957)" fill="white" fill-opacity="0.01" style="mix-blend-mode:multiply"/>
<path d="M148.32 293.317C146.743 293.317 145.46 292.034 145.46 290.457C145.46 289.002 146.552 287.798 147.959 287.62L147.946 282.958C147.946 282.053 147.21 281.317 146.306 281.317H139.82C136.037 281.317 132.96 278.239 132.96 274.457C132.96 270.675 136.037 267.597 139.82 267.597H141.059C142.689 264.507 145.834 262.597 149.32 262.597C154.36 262.597 158.483 266.602 158.674 271.597H158.82C161.5 271.597 163.68 273.777 163.68 276.457C163.68 279.137 161.499 281.317 158.82 281.317L156.322 281.331L156.318 280.61L158.818 280.596C161.103 280.596 162.96 278.739 162.96 276.456C162.96 274.173 161.104 272.316 158.82 272.316H158.32C158.121 272.316 157.96 272.155 157.96 271.956C157.96 267.192 154.084 263.316 149.32 263.316C146.035 263.316 143.078 265.156 141.601 268.117C141.54 268.24 141.416 268.317 141.279 268.317H139.82C136.434 268.317 133.68 271.071 133.68 274.457C133.68 277.843 136.434 280.597 139.82 280.597H146.306C147.607 280.597 148.666 281.656 148.666 282.957L148.679 287.619C150.088 287.797 151.18 289.002 151.18 290.457C151.18 292.034 149.897 293.317 148.32 293.317ZM148.32 288.317C147.14 288.317 146.18 289.277 146.18 290.457C146.18 291.637 147.14 292.597 148.32 292.597C149.5 292.597 150.46 291.637 150.46 290.457C150.46 289.277 149.5 288.317 148.32 288.317ZM158.32 290.317C158.258 290.317 158.198 290.301 158.142 290.27C158.03 290.206 157.96 290.087 157.96 289.957V287.317H154.32C153.018 287.317 151.96 286.258 151.96 284.957V279.295C150.553 279.117 149.46 277.912 149.46 276.457C149.46 274.88 150.743 273.597 152.32 273.597C153.897 273.597 155.18 274.88 155.18 276.457C155.18 277.912 154.087 279.117 152.68 279.295V284.957C152.68 285.861 153.415 286.597 154.32 286.597H157.96V283.957C157.96 283.827 158.03 283.708 158.143 283.644C158.257 283.58 158.393 283.582 158.506 283.649L163.506 286.649C163.614 286.714 163.681 286.832 163.681 286.958C163.681 287.084 163.615 287.201 163.506 287.267L158.506 290.267C158.448 290.3 158.384 290.317 158.32 290.317ZM158.68 284.593V289.322L162.62 286.957L158.68 284.593ZM152.32 274.317C151.14 274.317 150.18 275.277 150.18 276.457C150.18 277.637 151.14 278.597 152.32 278.597C153.5 278.597 154.46 277.637 154.46 276.457C154.46 275.277 153.5 274.317 152.32 274.317ZM138.32 289.817H133.32C133.121 289.817 132.96 289.656 132.96 289.457V284.457C132.96 284.258 133.121 284.097 133.32 284.097H138.32C138.519 284.097 138.68 284.258 138.68 284.457V286.597H142.32C143.224 286.597 143.96 285.862 143.96 284.957V282.957H144.68V284.957C144.68 286.259 143.621 287.317 142.32 287.317H138.68V289.457C138.68 289.656 138.519 289.817 138.32 289.817ZM133.68 289.097H137.96V284.817H133.68V289.097Z" fill="#161616"/>
</g>
<g clip-path="url(#clip6_1935_12405)">
<rect width="32" height="32" transform="translate(190 328.177)" fill="white" fill-opacity="0.01" style="mix-blend-mode:multiply"/>
<path d="M221 359.537H197C196.801 359.537 196.64 359.376 196.64 359.177V351.537H191C190.801 351.537 190.64 351.376 190.64 351.177V336.177C190.64 335.978 190.801 335.817 191 335.817H196.64V329.177C196.64 328.978 196.801 328.817 197 328.817H215C215.096 328.817 215.188 328.855 215.255 328.922L221.255 334.922C221.322 334.99 221.36 335.081 221.36 335.177V359.177C221.36 359.376 221.199 359.537 221 359.537ZM197.36 358.817H220.64V335.537H215C214.801 335.537 214.64 335.376 214.64 335.177V329.537H197.36V335.817H206C206.199 335.817 206.36 335.978 206.36 336.177V338.818H217V339.538H206.36V342.818H217V343.538H206.36V346.817H217V347.538H206.36V350.817H217V351.538H197.36V358.817ZM191.36 350.817H205.64V348.327L202 344.687L200.254 346.432C200.113 346.573 199.886 346.573 199.745 346.432L195 341.687L191.36 345.327V350.817ZM202 343.818C202.092 343.818 202.184 343.853 202.254 343.923L205.64 347.308V336.537H191.36V344.308L194.746 340.923C194.887 340.782 195.114 340.782 195.255 340.923L200 345.668L201.746 343.923C201.816 343.853 201.908 343.818 202 343.818ZM215.36 334.817H220.131L215.36 330.046V334.817ZM213 355.537H201V354.817H213V355.537ZM200.5 341.537C199.475 341.537 198.64 340.703 198.64 339.677C198.64 338.651 199.474 337.817 200.5 337.817C201.526 337.817 202.36 338.651 202.36 339.677C202.36 340.703 201.525 341.537 200.5 341.537ZM200.5 338.537C199.872 338.537 199.36 339.049 199.36 339.677C199.36 340.305 199.872 340.817 200.5 340.817C201.128 340.817 201.64 340.305 201.64 339.677C201.64 339.049 201.128 338.537 200.5 338.537Z" fill="#161616"/>
</g>
<g clip-path="url(#clip7_1935_12405)">
<rect width="32" height="32" transform="translate(76.3201 117.957)" fill="white" fill-opacity="0.01" style="mix-blend-mode:multiply"/>
<path d="M105.32 121.457C105.32 121.733 105.096 121.957 104.82 121.957C104.544 121.957 104.32 121.733 104.32 121.457C104.32 121.181 104.544 120.957 104.82 120.957C105.096 120.957 105.32 121.181 105.32 121.457ZM102.82 120.957C102.544 120.957 102.32 121.181 102.32 121.457C102.32 121.733 102.544 121.957 102.82 121.957C103.096 121.957 103.32 121.733 103.32 121.457C103.32 121.181 103.096 120.957 102.82 120.957ZM100.82 120.957C100.544 120.957 100.32 121.181 100.32 121.457C100.32 121.733 100.544 121.957 100.82 121.957C101.096 121.957 101.32 121.733 101.32 121.457C101.32 121.181 101.096 120.957 100.82 120.957ZM107.32 148.317H77.3201C77.1211 148.317 76.9601 148.156 76.9601 147.957V119.957C76.9601 119.758 77.1211 119.597 77.3201 119.597H107.32C107.519 119.597 107.68 119.758 107.68 119.957V147.957C107.68 148.156 107.519 148.317 107.32 148.317ZM77.6801 147.597H106.96V123.317H77.6801V147.597ZM77.6801 122.597H106.96V120.317H77.6801V122.597ZM89.8201 142.099L89.1581 141.816L95.1581 127.816L95.8201 128.099L89.8201 142.099ZM97.7441 139.212L97.2341 138.702L100.98 134.957L97.2341 131.211L97.7441 130.702L101.744 134.702C101.885 134.843 101.885 135.071 101.744 135.211L97.7441 139.212ZM87.2351 139.212L83.2351 135.212C83.0941 135.071 83.0941 134.843 83.2351 134.703L87.2351 130.703L87.7441 131.212L83.9981 134.957L87.7431 138.702L87.2351 139.212Z" fill="#161616"/>
</g>
<g clip-path="url(#clip8_1935_12405)">
<rect width="32" height="32" transform="translate(132.32 333.957)" fill="white" fill-opacity="0.01" style="mix-blend-mode:multiply"/>
<path d="M148.32 365.317C139.85 365.317 132.96 358.427 132.96 349.957C132.96 341.487 139.85 334.597 148.32 334.597C156.79 334.597 163.68 341.487 163.68 349.957C163.68 358.427 156.79 365.317 148.32 365.317ZM148.32 335.317C140.247 335.317 133.68 341.884 133.68 349.957C133.68 358.029 140.247 364.597 148.32 364.597C156.392 364.597 162.96 358.03 162.96 349.957C162.96 341.884 156.392 335.317 148.32 335.317ZM155.68 356.957H154.96V342.957H155.681L155.68 356.957ZM143.68 356.957H142.96V342.957H143.68V356.957ZM149.68 354.957H148.96V344.957H149.68V354.957ZM140.68 353.957H139.96V345.957H140.68V353.957ZM158.68 352.957H157.96V346.957H158.681L158.68 352.957ZM146.68 352.957H145.96V346.957H146.68V352.957ZM152.68 350.957H151.96V348.957H152.681L152.68 350.957ZM137.68 350.957H136.96V348.957H137.68V350.957Z" fill="#161616"/>
</g>
<rect width="32" height="32" transform="translate(190 117.957)" fill="white" fill-opacity="0.01" style="mix-blend-mode:multiply"/>
<path d="M197 148.317C194.596 148.317 192.64 146.361 192.64 143.957C192.64 141.553 194.596 139.597 197 139.597C198.519 139.597 199.859 140.378 200.64 141.56V124.752C200.64 124.589 200.749 124.446 200.907 124.404L218.907 119.609C219.012 119.579 219.131 119.603 219.219 119.671C219.308 119.74 219.36 119.845 219.36 119.957V138.957C219.36 141.361 217.404 143.317 215 143.317C212.596 143.317 210.64 141.361 210.64 138.957C210.64 136.553 212.596 134.597 215 134.597C216.519 134.597 217.859 135.378 218.64 136.559V126.425L201.36 131.029V143.957C201.36 146.361 199.404 148.317 197 148.317ZM197 140.317C194.993 140.317 193.36 141.95 193.36 143.957C193.36 145.964 194.993 147.597 197 147.597C199.007 147.597 200.64 145.964 200.64 143.957C200.64 141.95 199.007 140.317 197 140.317ZM215 135.317C212.993 135.317 211.36 136.95 211.36 138.957C211.36 140.964 212.993 142.597 215 142.597C217.007 142.597 218.64 140.964 218.64 138.957C218.64 136.95 217.007 135.317 215 135.317ZM201.36 125.029V130.284L218.64 125.68V120.425L201.36 125.029Z" fill="#161616"/>
<g clip-path="url(#clip9_1935_12405)">
<rect width="32" height="32" transform="translate(190 189.957)" fill="white" fill-opacity="0.01" style="mix-blend-mode:multiply"/>
<path d="M221 221.317H191V220.597H221V221.317ZM221 214.317H191C190.801 214.317 190.64 214.156 190.64 213.957V191.957C190.64 191.758 190.801 191.597 191 191.597H221C221.199 191.597 221.36 191.758 221.36 191.957V213.957C221.36 214.156 221.199 214.317 221 214.317ZM191.36 213.597H220.64V192.317H191.36V213.597ZM202.005 208.509C201.943 208.509 201.88 208.492 201.825 208.46C201.714 208.396 201.645 208.277 201.645 208.148V197.756C201.645 197.628 201.713 197.508 201.825 197.444C201.936 197.381 202.074 197.381 202.185 197.444L211.185 202.641C211.296 202.705 211.366 202.824 211.366 202.953C211.366 203.082 211.297 203.201 211.185 203.265L202.185 208.461C202.129 208.492 202.067 208.509 202.005 208.509ZM202.365 198.379V207.524L210.285 202.952L202.365 198.379Z" fill="#161616"/>
</g>
<path d="M78.3201 360.36H77.8201C77.8201 360.636 78.0439 360.86 78.3201 360.86V360.36ZM106.32 360.36V360.86C106.596 360.86 106.82 360.636 106.82 360.36H106.32ZM106.32 332.36H106.82C106.82 332.084 106.596 331.86 106.32 331.86V332.36ZM78.3201 332.36V331.86C78.0439 331.86 77.8201 332.084 77.8201 332.36H78.3201ZM85.5544 341.347L85.9096 340.995C85.8157 340.9 85.6878 340.847 85.5544 340.847C85.421 340.847 85.2931 340.9 85.1992 340.995L85.5544 341.347ZM94.975 350.856L94.6198 351.208C94.7137 351.303 94.8415 351.356 94.975 351.356C95.1084 351.356 95.2363 351.303 95.3302 351.208L94.975 350.856ZM98.6004 347.196L98.9556 346.845C98.8617 346.75 98.7338 346.696 98.6004 346.696C98.467 346.696 98.3391 346.75 98.2452 346.845L98.6004 347.196ZM78.3201 360.86H106.32V359.86H78.3201V360.86ZM106.32 331.86H78.3201V332.86H106.32V331.86ZM77.8201 332.36V348.649H78.8201V332.36H77.8201ZM77.8201 348.649V360.36H78.8201V348.649H77.8201ZM78.6753 349.001L85.9096 341.699L85.1992 340.995L77.9649 348.297L78.6753 349.001ZM85.1992 341.699L94.6198 351.208L95.3302 350.504L85.9096 340.995L85.1992 341.699ZM95.3302 351.208L98.9556 347.548L98.2452 346.845L94.6198 350.504L95.3302 351.208ZM106.82 360.36V354.989H105.82V360.36H106.82ZM106.82 354.989V332.36H105.82V354.989H106.82ZM98.2452 347.548L105.965 355.341L106.675 354.637L98.9556 346.845L98.2452 347.548ZM98.2312 338.964C98.2312 340.248 97.201 341.281 95.94 341.281V342.281C97.7621 342.281 99.2312 340.792 99.2312 338.964H98.2312ZM95.94 341.281C94.679 341.281 93.6487 340.248 93.6487 338.964H92.6487C92.6487 340.792 94.1178 342.281 95.94 342.281V341.281ZM93.6487 338.964C93.6487 337.679 94.679 336.646 95.94 336.646V335.646C94.1178 335.646 92.6487 337.136 92.6487 338.964H93.6487ZM95.94 336.646C97.201 336.646 98.2312 337.679 98.2312 338.964H99.2312C99.2312 337.136 97.7621 335.646 95.94 335.646V336.646Z" fill="black"/>
<path d="M204.534 278.659V284.25C204.534 284.881 205.089 285.076 205.367 285.094H213.445C213.816 285.094 214.171 285.243 214.431 285.507L217.064 288.177V285.746C217.064 285.205 217.533 285.086 217.767 285.094H221.081C221.685 285.094 221.944 284.329 221.998 283.946V274.705C222.022 274.342 221.872 273.616 221.081 273.616H216.098M190.004 263.54V276.977C190.083 277.533 190.464 278.646 191.355 278.646H196.241C196.587 278.634 197.278 278.807 197.278 279.594V283.128L201.354 279.052C201.614 278.792 201.967 278.646 202.334 278.646H214.527C214.936 278.619 215.754 278.337 215.754 277.419V263.062C215.745 262.694 215.512 261.957 214.649 261.957H191.355C190.188 261.957 189.968 263.013 190.004 263.54Z" stroke="black" stroke-linecap="round" stroke-linejoin="round"/>
<path d="M461.476 431.007H484.569M461.476 444.301H484.569M461.476 435.395H484.569M461.476 439.483H484.569M472.886 421.834H484.569M472.886 426.222H484.569M456.654 417V449H489.118V442.841V438.682V417H472.886H456.654Z" stroke="black" stroke-linecap="round" stroke-linejoin="round"/>
<path d="M467.356 427.15H465.913L465.323 425.274H462.71L462.13 427.15H460.719L463.184 419.796H464.912L467.356 427.15ZM464.986 424.084L464.038 421.06H463.985L463.047 424.084H464.986Z" fill="black"/>
<path d="M536.716 419.072C536.716 419.38 536.467 419.63 536.159 419.63C535.852 419.63 535.602 419.38 535.602 419.072C535.602 418.765 535.852 418.515 536.159 418.515C536.467 418.515 536.716 418.765 536.716 419.072ZM533.931 418.515C533.623 418.515 533.374 418.765 533.374 419.072C533.374 419.38 533.623 419.63 533.931 419.63C534.238 419.63 534.488 419.38 534.488 419.072C534.488 418.765 534.238 418.515 533.931 418.515ZM531.702 418.515C531.395 418.515 531.145 418.765 531.145 419.072C531.145 419.38 531.395 419.63 531.702 419.63C532.01 419.63 532.26 419.38 532.26 419.072C532.26 418.765 532.01 418.515 531.702 418.515ZM538.945 449H505.519C505.297 449 505.118 448.821 505.118 448.599V417.401C505.118 417.179 505.297 417 505.519 417H538.945C539.167 417 539.346 417.179 539.346 417.401V448.599C539.346 448.821 539.167 449 538.945 449ZM514.833 448.198H538.544V421.145H514.833V448.198ZM505.92 448.198H514.031V421.145H505.92V448.198ZM538.544 420.343V417.802H505.92V420.343H538.544Z" fill="#161616"/>
<path d="M522.232 420.702H522.986V448.315H522.232V420.702Z" fill="black"/>
<path d="M530.407 420.702H531.162V448.315H530.407V420.702Z" fill="black"/>
<path d="M539.192 424.822V425.577L505.683 425.577V424.822L539.192 424.822Z" fill="black"/>
<path d="M539.192 429.532V430.287L505.683 430.287V429.532L539.192 429.532Z" fill="black"/>
<path d="M539.192 434.242V434.997L505.683 434.997V434.242L539.192 434.242Z" fill="black"/>
<path d="M539.192 438.952V439.706L505.683 439.706V438.952L539.192 438.952Z" fill="black"/>
<path d="M539.192 443.662V444.416L505.683 444.416V443.662L539.192 443.662Z" fill="black"/>
<path d="M555.346 447H554.846C554.846 447.276 555.07 447.5 555.346 447.5V447ZM583.346 447V447.5C583.622 447.5 583.846 447.276 583.846 447H583.346ZM583.346 419H583.846C583.846 418.724 583.622 418.5 583.346 418.5V419ZM555.346 419V418.5C555.07 418.5 554.846 418.724 554.846 419H555.346ZM562.58 427.987L562.935 427.635C562.842 427.54 562.714 427.487 562.58 427.487C562.447 427.487 562.319 427.54 562.225 427.635L562.58 427.987ZM572.001 437.496L571.646 437.848C571.74 437.943 571.867 437.996 572.001 437.996C572.134 437.996 572.262 437.943 572.356 437.848L572.001 437.496ZM575.626 433.837L575.982 433.485C575.888 433.39 575.76 433.337 575.626 433.337C575.493 433.337 575.365 433.39 575.271 433.485L575.626 433.837ZM555.346 447.5H583.346V446.5H555.346V447.5ZM583.346 418.5H555.346V419.5H583.346V418.5ZM554.846 419V435.289H555.846V419H554.846ZM554.846 435.289V447H555.846V435.289H554.846ZM555.701 435.641L562.935 428.339L562.225 427.635L554.991 434.937L555.701 435.641ZM562.225 428.339L571.646 437.848L572.356 437.144L562.935 427.635L562.225 428.339ZM572.356 437.848L575.982 434.188L575.271 433.485L571.646 437.144L572.356 437.848ZM583.846 447V441.629H582.846V447H583.846ZM583.846 441.629V419H582.846V441.629H583.846ZM575.271 434.188L582.991 441.981L583.701 441.277L575.982 433.485L575.271 434.188ZM575.257 425.604C575.257 426.888 574.227 427.921 572.966 427.921V428.921C574.788 428.921 576.257 427.432 576.257 425.604H575.257ZM572.966 427.921C571.705 427.921 570.675 426.888 570.675 425.604H569.675C569.675 427.432 571.144 428.921 572.966 428.921V427.921ZM570.675 425.604C570.675 424.319 571.705 423.286 572.966 423.286V422.286C571.144 422.286 569.675 423.776 569.675 425.604H570.675ZM572.966 423.286C574.227 423.286 575.257 424.319 575.257 425.604H576.257C576.257 423.776 574.788 422.286 572.966 422.286V423.286Z" fill="black"/>
<rect width="137" height="8" transform="translate(247 199)" fill="white" fill-opacity="0.01" style="mix-blend-mode:multiply"/>
<rect width="130" height="0" transform="translate(247 203)" fill="white" fill-opacity="0.01" style="mix-blend-mode:multiply"/>
<path d="M247 203H377" stroke="black"/>
<rect width="8" height="8" transform="translate(376 199)" fill="white" fill-opacity="0.01" style="mix-blend-mode:multiply"/>
<path d="M376 199L384 203L376 207V199Z" fill="black"/>
<rect width="137" height="8" transform="translate(656 199)" fill="white" fill-opacity="0.01" style="mix-blend-mode:multiply"/>
<rect width="130" height="0" transform="translate(656 203)" fill="white" fill-opacity="0.01" style="mix-blend-mode:multiply"/>
<path d="M656 203H786" stroke="black"/>
<rect width="8" height="8" transform="translate(785 199)" fill="white" fill-opacity="0.01" style="mix-blend-mode:multiply"/>
<path d="M785 199L793 203L785 207V199Z" fill="black"/>
<rect width="137" height="8" transform="translate(589.899 570.899)" fill="white" fill-opacity="0.01" style="mix-blend-mode:multiply"/>
<g clip-path="url(#clip10_1935_12405)">
<rect width="130" height="0" transform="translate(589.899 574.899)" fill="white" fill-opacity="0.01" style="mix-blend-mode:multiply"/>
<path d="M589.899 574.899H719.899" stroke="black"/>
</g>
<rect width="8" height="8" transform="translate(718.899 570.899)" fill="white" fill-opacity="0.01" style="mix-blend-mode:multiply"/>
<path d="M718.899 570.899L726.899 574.899L718.899 578.899V570.899Z" fill="black"/>
<rect width="17" height="9" transform="translate(524 348) rotate(90)" fill="white" fill-opacity="0.01" style="mix-blend-mode:multiply"/>
<g clip-path="url(#clip11_1935_12405)">
<rect width="17" height="0" transform="translate(519.5 348) rotate(90)" fill="white" fill-opacity="0.01" style="mix-blend-mode:multiply"/>
<path d="M519.5 348L519.5 365" stroke="black"/>
</g>
<rect width="17" height="9" transform="translate(528 361) rotate(-180)" fill="white" fill-opacity="0.01" style="mix-blend-mode:multiply"/>
<rect width="17" height="0" transform="translate(528 356.5) rotate(-180)" fill="white" fill-opacity="0.01" style="mix-blend-mode:multiply"/>
<path d="M528 356.5L511 356.5" stroke="black"/>
<rect width="40" height="9" transform="translate(524 465) rotate(90)" fill="white" fill-opacity="0.01" style="mix-blend-mode:multiply"/>
<g clip-path="url(#clip12_1935_12405)">
<rect width="33" height="0" transform="translate(519.5 465) rotate(90)" fill="white" fill-opacity="0.01" style="mix-blend-mode:multiply"/>
<path d="M519.5 465L519.5 498" stroke="black"/>
</g>
<rect width="8" height="8" transform="translate(523.5 497) rotate(90)" fill="white" fill-opacity="0.01" style="mix-blend-mode:multiply"/>
<path d="M523.5 497L519.5 505L515.5 497L523.5 497Z" fill="black"/>
<circle cx="520" cy="202" r="135.5" fill="#DEFBE6" stroke="#198038"/>
<circle cx="520" cy="574.899" r="69.3989" fill="#EDE5FF" stroke="#7822FB"/>
<text fill="black" xml:space="preserve" style="white-space: pre" font-family="Arial" font-size="14" font-weight="bold" letter-spacing="0.16px"><tspan x="476.523" y="579.752">Tuned Model</tspan></text>
<text fill="black" xml:space="preserve" style="white-space: pre" font-family="Arial" font-size="14" font-weight="bold" letter-spacing="0.16px"><tspan x="458.487" y="208.854">Foundation Model</tspan></text>
<rect x="278" y="193.5" width="82" height="18" rx="9" fill="white"/>
<rect x="278" y="193.5" width="82" height="18" rx="9" stroke="black"/>
<text fill="black" xml:space="preserve" style="white-space: pre" font-family="Arial" font-size="14" letter-spacing="0.16px"><tspan x="285.5" y="206.854">Pretrained</tspan></text>
<rect x="683.5" y="193.5" width="81" height="18" rx="9" fill="white"/>
<rect x="683.5" y="193.5" width="81" height="18" rx="9" stroke="black"/>
<text fill="black" xml:space="preserve" style="white-space: pre" font-family="Arial" font-size="14" letter-spacing="0.16px"><tspan x="691" y="206.854">Prompting</tspan></text>
<rect x="616.5" y="565.399" width="81" height="18" rx="9" fill="white"/>
<rect x="616.5" y="565.399" width="81" height="18" rx="9" stroke="black"/>
<text fill="black" xml:space="preserve" style="white-space: pre" font-family="Arial" font-size="14" letter-spacing="0.16px"><tspan x="624" y="578.752">Prompting</tspan></text>
<rect width="175" height="18" transform="translate(800 168)" fill="white" fill-opacity="0.01" style="mix-blend-mode:multiply"/>
<rect x="800" y="173" width="8" height="8" rx="4" fill="#24A148"/>
<text fill="black" xml:space="preserve" style="white-space: pre" font-family="Arial" font-size="14" font-weight="bold" letter-spacing="0.16px"><tspan x="816" y="181.854">Generation</tspan></text>
<rect width="175" height="18" transform="translate(800 194)" fill="white" fill-opacity="0.01" style="mix-blend-mode:multiply"/>
<rect x="800" y="199" width="8" height="8" rx="4" fill="#24A148"/>
<text fill="black" xml:space="preserve" style="white-space: pre" font-family="Arial" font-size="14" font-weight="bold" letter-spacing="0.16px"><tspan x="816" y="207.854">Translation</tspan></text>
<rect width="175" height="18" transform="translate(800 220)" fill="white" fill-opacity="0.01" style="mix-blend-mode:multiply"/>
<rect x="800" y="225" width="8" height="8" rx="4" fill="#24A148"/>
<text fill="black" xml:space="preserve" style="white-space: pre" font-family="Arial" font-size="14" font-weight="bold" letter-spacing="0.16px"><tspan x="816" y="233.854">Question-answering</tspan></text>
<rect width="175" height="18" transform="translate(752 512.899)" fill="white" fill-opacity="0.01" style="mix-blend-mode:multiply"/>
<rect x="752" y="517.899" width="8" height="8" rx="4" fill="#A56EFF"/>
<text fill="black" xml:space="preserve" style="white-space: pre" font-family="Arial" font-size="14" font-weight="bold" letter-spacing="0.16px"><tspan x="768" y="526.752">Formatted generation</tspan></text>
<rect width="175" height="18" transform="translate(752 538.899)" fill="white" fill-opacity="0.01" style="mix-blend-mode:multiply"/>
<rect x="752" y="543.899" width="8" height="8" rx="4" fill="#A56EFF"/>
<text fill="black" xml:space="preserve" style="white-space: pre" font-family="Arial" font-size="14" font-weight="bold" letter-spacing="0.16px"><tspan x="768" y="552.752">Formatted answers</tspan></text>
<rect width="175" height="18" transform="translate(752 564.899)" fill="white" fill-opacity="0.01" style="mix-blend-mode:multiply"/>
<rect x="752" y="569.899" width="8" height="8" rx="4" fill="#A56EFF"/>
<text fill="black" xml:space="preserve" style="white-space: pre" font-family="Arial" font-size="14" font-weight="bold" letter-spacing="0.16px"><tspan x="768" y="578.752">Classification</tspan></text>
<rect width="175" height="18" transform="translate(752 590.899)" fill="white" fill-opacity="0.01" style="mix-blend-mode:multiply"/>
<rect x="752" y="595.899" width="8" height="8" rx="4" fill="#A56EFF"/>
<text fill="black" xml:space="preserve" style="white-space: pre" font-family="Arial" font-size="14" font-weight="bold" letter-spacing="0.16px"><tspan x="768" y="604.752">Summarization</tspan></text>
<rect width="175" height="18" transform="translate(752 616.899)" fill="white" fill-opacity="0.01" style="mix-blend-mode:multiply"/>
<rect x="752" y="621.899" width="8" height="8" rx="4" fill="#A56EFF"/>
<text fill="black" xml:space="preserve" style="white-space: pre" font-family="Arial" font-size="14" font-weight="bold" letter-spacing="0.16px"><tspan x="768" y="630.752">Extraction</tspan></text>
<defs>
<clipPath id="clip0_1935_12405">
<rect width="200" height="48" fill="white" transform="translate(48 48)"/>
</clipPath>
<clipPath id="clip1_1935_12405">
<rect width="240" height="48" fill="white" transform="translate(400 377)"/>
</clipPath>
<clipPath id="clip2_1935_12405">
<rect width="32" height="32" fill="white" transform="translate(76.3201 189.957)"/>
</clipPath>
<clipPath id="clip3_1935_12405">
<rect width="32" height="32" fill="white" transform="translate(132.32 189.957)"/>
</clipPath>
<clipPath id="clip4_1935_12405">
<rect width="32" height="32" fill="white" transform="translate(132.32 117.957)"/>
</clipPath>
<clipPath id="clip5_1935_12405">
<rect width="32" height="32" fill="white" transform="translate(132.32 261.957)"/>
</clipPath>
<clipPath id="clip6_1935_12405">
<rect width="32" height="32" fill="white" transform="translate(190 328.177)"/>
</clipPath>
<clipPath id="clip7_1935_12405">
<rect width="32" height="32" fill="white" transform="translate(76.3201 117.957)"/>
</clipPath>
<clipPath id="clip8_1935_12405">
<rect width="32" height="32" fill="white" transform="translate(132.32 333.957)"/>
</clipPath>
<clipPath id="clip9_1935_12405">
<rect width="32" height="32" fill="white" transform="translate(190 189.957)"/>
</clipPath>
<clipPath id="clip10_1935_12405">
<rect width="130" height="8" fill="white" transform="translate(589.899 570.899)"/>
</clipPath>
<clipPath id="clip11_1935_12405">
<rect width="17" height="8" fill="white" transform="translate(523.5 348) rotate(90)"/>
</clipPath>
<clipPath id="clip12_1935_12405">
<rect width="33" height="8" fill="white" transform="translate(523.5 465) rotate(90)"/>
</clipPath>
</defs>
</svg>
